<svg width="48" height="48" viewBox="0 0 48 48" fill="none" xmlns="http://www.w3.org/2000/svg">
<rect width="48" height="48" rx="10" fill="#E4F3EA"/>
<path d="M33.892 20.224C33.641 19.619 32.851 19.257 31.778 19.257C31.5705 19.2585 31.3633 19.2706 31.157 19.293C31.7127 18.8887 32.1194 18.3122 32.314 17.653C32.3625 17.3877 32.342 17.1143 32.2544 16.8592C32.1669 16.604 32.0152 16.3757 31.814 16.196C31.632 15.9942 31.4013 15.8423 31.144 15.7548C30.8867 15.6673 30.6113 15.6471 30.344 15.696C29.6851 15.8889 29.108 16.2934 28.702 16.847C28.7241 16.6397 28.7358 16.4315 28.737 16.223C28.737 15.15 28.376 14.36 27.77 14.11C27.5441 14.0273 27.2982 14.016 27.0656 14.0777C26.8331 14.1394 26.6252 14.2711 26.47 14.455C26.305 14.619 25.833 15.097 25.613 17.628C25.1204 17.488 24.5961 17.5065 24.1146 17.6809C23.6331 17.8554 23.2186 18.1769 22.93 18.6L14.879 30.1C14.6767 30.3889 14.5827 30.7398 14.6134 31.0911C14.6441 31.4424 14.7977 31.7717 15.047 32.021L15.982 32.956C16.2314 33.2054 16.5606 33.3589 16.9119 33.3896C17.2632 33.4203 17.6141 33.3263 17.903 33.124L29.403 25.073C29.8267 24.7841 30.1485 24.3688 30.3224 23.8864C30.4964 23.4039 30.5138 22.8789 30.372 22.386C32.054 22.24 33.12 21.952 33.544 21.528C33.729 21.3728 33.8616 21.1643 33.9239 20.931C33.9862 20.6976 33.975 20.4508 33.892 20.224ZM30.536 16.678C30.6434 16.6597 30.7537 16.671 30.8552 16.7106C30.9567 16.7502 31.0455 16.8168 31.112 16.903C31.1961 16.9682 31.261 17.055 31.2997 17.1542C31.3385 17.2533 31.3496 17.3611 31.332 17.466C31.177 18.281 29.532 19.307 28.352 19.866L28.136 19.65C28.693 18.471 29.718 16.833 30.536 16.678ZM27.182 15.161C27.287 15.061 27.366 15.022 27.394 15.033C27.503 15.078 27.742 15.44 27.742 16.222C27.6977 17.0992 27.5493 17.9679 27.3 18.81L26.751 18.261C26.701 18.211 26.642 18.176 26.588 18.131C26.723 16.139 27.021 15.322 27.182 15.161ZM17.33 32.3C17.2337 32.3676 17.1166 32.3991 16.9993 32.3888C16.882 32.3786 16.7722 32.3273 16.689 32.244L15.754 31.309C15.6715 31.2257 15.6209 31.1161 15.6111 30.9993C15.6012 30.8825 15.6327 30.766 15.7 30.67L17.207 28.518L19.482 30.8L17.33 32.3ZM28.83 24.248L26.967 25.548L25.226 23.806C25.1322 23.7121 25.005 23.6593 24.8724 23.6593C24.7397 23.6592 24.6124 23.7118 24.5185 23.8055C24.4246 23.8993 24.3718 24.0265 24.3717 24.1592C24.3716 24.2919 24.4242 24.4191 24.518 24.513L26.136 26.131L23.636 27.878L21.85 26.092C21.7557 26.0009 21.6294 25.9506 21.4983 25.9517C21.3672 25.9528 21.2418 26.0054 21.1491 26.0981C21.0564 26.1908 21.0038 26.3162 21.0027 26.4473C21.0015 26.5784 21.0519 26.7047 21.143 26.799L22.809 28.466L20.309 30.213L17.787 27.686L21.863 21.863L23.03 23.03C23.0761 23.0778 23.1313 23.1159 23.1923 23.1421C23.2533 23.1683 23.3189 23.1821 23.3853 23.1827C23.4517 23.1832 23.5175 23.1706 23.579 23.1454C23.6404 23.1203 23.6963 23.0832 23.7432 23.0362C23.7901 22.9893 23.8273 22.9335 23.8524 22.872C23.8776 22.8106 23.8902 22.7447 23.8896 22.6783C23.8891 22.6119 23.8753 22.5463 23.8491 22.4853C23.8229 22.4243 23.7848 22.3692 23.737 22.323L22.446 21.031L23.746 19.168C23.8715 18.9881 24.0352 18.8382 24.2253 18.7287C24.4155 18.6193 24.6274 18.5532 24.846 18.535C24.89 18.535 24.934 18.529 24.977 18.529C25.3746 18.5291 25.7558 18.687 26.037 18.968L29.03 21.961C29.0641 21.9987 29.0959 22.0384 29.125 22.08C29.1532 22.1763 29.2105 22.2616 29.289 22.324C29.4638 22.6452 29.5135 23.0197 29.4286 23.3753C29.3436 23.7309 29.13 24.0425 28.829 24.25L28.83 24.248ZM32.838 20.816C32.675 20.978 31.856 21.276 29.869 21.416C29.824 21.362 29.788 21.303 29.738 21.253L29.189 20.704C30.0307 20.4521 30.8996 20.3017 31.777 20.256C32.559 20.256 32.921 20.496 32.967 20.605C32.978 20.631 32.944 20.712 32.839 20.818L32.838 20.816Z" fill="#3A9B7A"/>
</svg>
