<svg width="48" height="48" viewBox="0 0 48 48" fill="none" xmlns="http://www.w3.org/2000/svg">
<rect width="48" height="48" rx="10" fill="#FFF6E4"/>
<path d="M34 25.5C33.9987 25.1909 33.902 24.8897 33.723 24.6377C33.544 24.3856 33.2915 24.195 33 24.092V19.5C32.9987 18.3069 32.5241 17.1631 31.6805 16.3195C30.8369 15.4759 29.6931 15.0013 28.5 15H19.5C18.3069 15.0013 17.1631 15.4759 16.3195 16.3195C15.4759 17.1631 15.0013 18.3069 15 19.5V24.092C14.6731 24.205 14.3955 24.428 14.2149 24.723C14.0342 25.0179 13.9617 25.3665 14.0096 25.7091C14.0576 26.0516 14.2231 26.3669 14.4778 26.6009C14.7325 26.8349 15.0606 26.9732 15.406 26.992L17.019 32.639C17.0492 32.7432 17.1124 32.8348 17.1992 32.8999C17.2859 32.965 17.3915 33.0002 17.5 33H22.289C22.3886 32.9999 22.4858 32.97 22.5683 32.9142C22.6508 32.8585 22.7148 32.7793 22.752 32.687L23.837 30H24.152L25.146 32.674C25.1815 32.7697 25.2455 32.8523 25.3294 32.9106C25.4132 32.9688 25.5129 33.0001 25.615 33H30.5C30.6087 33 30.7145 32.9646 30.8013 32.8991C30.8881 32.8336 30.9512 32.7416 30.981 32.637L32.594 26.99C32.9736 26.9662 33.33 26.799 33.591 26.5224C33.852 26.2458 33.9982 25.8803 34 25.5ZM16 19.5C16 18.5717 16.3687 17.6815 17.0251 17.0251C17.6815 16.3687 18.5717 16 19.5 16H28.5C29.4283 16 30.3185 16.3687 30.9749 17.0251C31.6313 17.6815 32 18.5717 32 19.5V24H31.984C31.9673 22.8851 31.6253 21.7993 31 20.876V19.5C31 18.837 30.7366 18.2011 30.2678 17.7322C29.7989 17.2634 29.163 17 28.5 17H19.5C18.837 17 18.2011 17.2634 17.7322 17.7322C17.2634 18.2011 17 18.837 17 19.5V20.876C16.3747 21.7993 16.0327 22.8851 16.016 24H16V19.5ZM19.5 20.429C20.83 20.429 21.911 22.014 21.986 24H17.014C17.089 22.014 18.17 20.429 19.5 20.429ZM22.984 24C22.9 21.463 21.376 19.429 19.5 19.429C18.9637 19.4379 18.4419 19.6048 18 19.909V19.5C18 19.1022 18.158 18.7206 18.4393 18.4393C18.7206 18.158 19.1022 18 19.5 18H28.5C28.8978 18 29.2794 18.158 29.5607 18.4393C29.842 18.7206 30 19.1022 30 19.5V19.909C29.5581 19.6048 29.0363 19.4379 28.5 19.429C26.624 19.429 25.1 21.463 25.016 24H22.984ZM28.5 20.429C29.83 20.429 30.911 22.014 30.986 24H26.014C26.089 22.014 27.17 20.429 28.5 20.429ZM30.123 32H25.963L24.969 29.326C24.9335 29.2303 24.8695 29.1477 24.7856 29.0894C24.7018 29.0312 24.6021 28.9999 24.5 29H23.5C23.4003 28.9999 23.3028 29.0297 23.2201 29.0855C23.1374 29.1413 23.0733 29.2205 23.036 29.313L21.951 32H17.877L16.449 27H31.549L30.123 32ZM32.5 26H15.5C15.3674 26 15.2402 25.9473 15.1464 25.8536C15.0527 25.7598 15 25.6326 15 25.5C15 25.3674 15.0527 25.2402 15.1464 25.1464C15.2402 25.0527 15.3674 25 15.5 25H32.5C32.6326 25 32.7598 25.0527 32.8536 25.1464C32.9473 25.2402 33 25.3674 33 25.5C33 25.6326 32.9473 25.7598 32.8536 25.8536C32.7598 25.9473 32.6326 26 32.5 26Z" fill="#FFC120"/>
</svg>
