<svg width="48" height="48" viewBox="0 0 48 48" fill="none" xmlns="http://www.w3.org/2000/svg">
<rect width="48" height="48" rx="10" fill="#FFECE8"/>
<path d="M34 23.75C33.9979 23.3115 33.9716 22.8735 33.921 22.438C33.9058 22.3164 33.8465 22.2046 33.7543 22.1238C33.6621 22.0431 33.5435 21.999 33.421 22H33V19.5C32.9974 18.9791 32.8321 18.4721 32.5274 18.0497C32.2226 17.6273 31.7935 17.3106 31.3 17.144L32.5 15.268C32.5566 15.1793 32.5837 15.075 32.5777 14.97C32.5716 14.865 32.5325 14.7646 32.466 14.6831C32.3996 14.6016 32.3091 14.5431 32.2075 14.5159C32.1058 14.4888 31.9983 14.4944 31.9 14.532L29.653 15.381L28.435 13.252C28.3875 13.18 28.323 13.1209 28.247 13.08C28.1711 13.0391 28.0862 13.0177 28 13.0177C27.9138 13.0177 27.8289 13.0391 27.753 13.08C27.677 13.1209 27.6125 13.18 27.565 13.252L26.351 15.381L24.1 14.532C24.0017 14.4944 23.8942 14.4888 23.7925 14.5159C23.6909 14.5431 23.6004 14.6016 23.534 14.6831C23.4675 14.7646 23.4284 14.865 23.4223 14.97C23.4163 15.075 23.4434 15.1793 23.5 15.268L24.7 17.144C24.22 17.3063 23.801 17.6112 23.4987 18.0178C23.1964 18.4244 23.0252 18.9136 23.008 19.42V19.446C23.008 19.464 23.003 19.481 23.003 19.5V22H16.075C15.9525 21.999 15.8339 22.0431 15.7417 22.1238C15.6495 22.2046 15.5902 22.3164 15.575 22.438C15.5258 22.8736 15.5007 23.3116 15.5 23.75C15.5048 24.3036 15.5587 24.8558 15.661 25.4C15.1459 25.6037 14.7082 25.9646 14.41 26.4313C14.1118 26.8981 13.9683 27.447 14 28C14 29.583 14.706 32.673 16.408 32.991C16.4686 33.0028 16.5302 33.0088 16.592 33.009C16.8876 32.9873 17.1723 32.8887 17.418 32.723C17.591 32.6025 17.7908 32.526 18 32.5C18.2059 32.5329 18.4027 32.6081 18.578 32.721C18.8726 32.9187 19.2238 33.0146 19.578 32.994C19.841 32.9439 20.0914 32.842 20.3146 32.6942C20.5378 32.5463 20.7293 32.3556 20.878 32.133C22.0909 32.6981 23.4119 32.9939 24.75 33C24.95 33 25.15 32.982 25.35 32.97C25.3982 32.9874 25.4488 32.9975 25.5 33H30.5C31.163 33 31.7989 32.7366 32.2678 32.2677C32.7366 31.7989 33 31.163 33 30.5V27.911C33.6562 26.622 33.9988 25.1963 34 23.75ZM32 19.5V20.587L27.949 18H30.5C30.8978 18 31.2794 18.158 31.5607 18.4393C31.842 18.7206 32 19.1021 32 19.5ZM26.4 16.468C26.5115 16.5103 26.6344 16.5114 26.7467 16.4711C26.8589 16.4307 26.953 16.3516 27.012 16.248L28 14.509L28.992 16.248C29.051 16.3516 29.1451 16.4307 29.2573 16.4711C29.3696 16.5114 29.4925 16.5103 29.604 16.468L30.847 16L30.21 17H25.79L25.153 16L26.4 16.468ZM25.5 18H26.09L32 21.774V22H28.638L24.027 19.233C24.0895 18.8876 24.2711 18.575 24.5402 18.3497C24.8094 18.1245 25.149 18.0007 25.5 18ZM24 20.383L26.7 22H24V20.383ZM19.431 32.005C19.295 31.9661 19.1649 31.9093 19.044 31.836C18.729 31.6397 18.3704 31.5243 18 31.5C17.6179 31.5184 17.2479 31.6397 16.929 31.851C16.8245 31.918 16.7115 31.9708 16.593 32.008C15.684 31.838 15 29.459 15 28C15 27.211 15.286 26.2 17.413 26.033C17.4136 26.3843 17.4471 26.7348 17.513 27.08C17.5375 27.1909 17.5992 27.2902 17.6877 27.3615C17.7762 27.4327 17.8864 27.4717 18 27.472C18.0357 27.4719 18.0712 27.4679 18.106 27.46C18.2353 27.4319 18.3482 27.3538 18.42 27.2426C18.4918 27.1314 18.5166 26.9964 18.489 26.867C18.4403 26.5883 18.4155 26.3059 18.415 26.023C20.7 26.142 21 27.191 21 28C21 29.568 20.4 31.851 19.431 32.005ZM21.365 31.259C21.4947 30.9486 21.6014 30.6291 21.684 30.303C22.7251 30.7969 23.8693 31.0345 25.0209 30.9958C26.1726 30.9572 27.2983 30.6434 28.3038 30.0807C29.3094 29.518 30.1657 28.7227 30.8011 27.7614C31.4364 26.8001 31.8324 25.7006 31.956 24.555C31.9637 24.4895 31.9583 24.4232 31.9403 24.3599C31.9222 24.2965 31.8918 24.2374 31.8509 24.1858C31.8099 24.1342 31.7591 24.0913 31.7015 24.0594C31.6438 24.0275 31.5805 24.0073 31.515 24C31.4495 23.9915 31.3829 23.9963 31.3193 24.0141C31.2557 24.0319 31.1963 24.0623 31.1447 24.1036C31.0931 24.1448 31.0503 24.196 31.0189 24.2542C30.9875 24.3123 30.9682 24.3762 30.962 24.442C30.8527 25.4499 30.4991 26.4159 29.9321 27.2562C29.365 28.0966 28.6015 28.786 27.7078 29.2646C26.814 29.7432 25.817 29.9965 24.8033 30.0027C23.7895 30.0089 22.7895 29.7676 21.89 29.3C21.9575 28.8698 21.9943 28.4354 22 28C22 26.706 21.376 25.178 18.512 25.016C18.5517 24.8116 18.6086 24.6108 18.682 24.416C18.7272 24.293 18.7223 24.1572 18.6684 24.0377C18.6145 23.9183 18.5159 23.8248 18.3937 23.7774C18.2716 23.7299 18.1357 23.7323 18.0153 23.7841C17.8949 23.8358 17.7997 23.9327 17.75 24.054C17.6324 24.3654 17.5469 24.6881 17.495 25.017C17.2038 25.0318 16.9139 25.0652 16.627 25.117C16.5467 24.6656 16.5042 24.2084 16.5 23.75C16.5 23.529 16.512 23.255 16.529 23H32.971C32.988 23.255 33 23.529 33 23.75C33.0046 25.129 32.6623 26.4871 32.0045 27.6992C31.3468 28.9113 30.3947 29.9385 29.236 30.6863C28.0773 31.4342 26.7491 31.8785 25.3737 31.9786C23.9983 32.0787 22.6197 31.8312 21.365 31.259ZM32 30.5C32 30.8978 31.842 31.2793 31.5607 31.5606C31.2794 31.8419 30.8978 32 30.5 32H28.911C30.1111 31.3925 31.1651 30.5316 32 29.477V30.5Z" fill="#FE6E4C"/>
<path d="M28.5 24C28.3674 24 28.2402 24.0527 28.1464 24.1464C28.0527 24.2402 28 24.3674 28 24.5V25.5C28 25.6326 28.0527 25.7598 28.1464 25.8536C28.2402 25.9473 28.3674 26 28.5 26C28.6326 26 28.7598 25.9473 28.8536 25.8536C28.9473 25.7598 29 25.6326 29 25.5V24.5C29 24.3674 28.9473 24.2402 28.8536 24.1464C28.7598 24.0527 28.6326 24 28.5 24Z" fill="#FE6E4C"/>
<path d="M22.5 24C22.3674 24 22.2402 24.0527 22.1464 24.1464C22.0527 24.2402 22 24.3674 22 24.5V25.5C22 25.6326 22.0527 25.7598 22.1464 25.8536C22.2402 25.9473 22.3674 26 22.5 26C22.6326 26 22.7598 25.9473 22.8536 25.8536C22.9473 25.7598 23 25.6326 23 25.5V24.5C23 24.3674 22.9473 24.2402 22.8536 24.1464C22.7598 24.0527 22.6326 24 22.5 24Z" fill="#FE6E4C"/>
<path d="M25.5 25C25.3674 25 25.2402 25.0527 25.1464 25.1464C25.0527 25.2402 25 25.3674 25 25.5V26.5C25 26.6326 25.0527 26.7598 25.1464 26.8536C25.2402 26.9473 25.3674 27 25.5 27C25.6326 27 25.7598 26.9473 25.8536 26.8536C25.9473 26.7598 26 26.6326 26 26.5V25.5C26 25.3674 25.9473 25.2402 25.8536 25.1464C25.7598 25.0527 25.6326 25 25.5 25Z" fill="#FE6E4C"/>
</svg>
